# AST/ASF file generated using VICON BodyLanguage
# -----------------------------------------------
:version 1.10
:name VICON
:units
  mass 1.0
  length 0.45
  angle deg
:documentation
   .ast/.asf automatically generated from VICON data using
   VICON BodyBuilder and BodyLanguage model FoxedUp or BRILLIANT.MOD
:root
   order TX TY TZ RX RY RZ
   axis XYZ
   position 0 0 0  
   orientation 0 0 0 
:bonedata
  begin
     id 1 
     name lhipjoint
     direction 0.577973 -0.728611 0.367523 
     length 2.48544 
     axis 0 0 0  XYZ
  end
  begin
     id 2 
     name lfemur
     direction 0.34202 -0.939693 0  
     length 7.1921  
     axis 0 0 20  XYZ
    dof rx ry rz
    limits (-160.0 20.0)
           (-70.0 70.0)
           (-60.0 70.0)
  end
  begin
     id 3 
     name ltibia
     direction 0.34202 -0.939693 0   
     length 7.71059   
     axis 0 0 20   XYZ
    dof rx
    limits (-10.0 170.0)
  end
  begin
     id 4 
     name lfoot
     direction 0.089538 -0.246004 0.965124   
     length 2.19909   
     axis -90 7.62852e-016 20   XYZ
    dof rx rz
    limits (-45.0 90.0)
           (-70.0 20.0)
  end
  begin
     id 5 
     name ltoes
     direction 1.53544e-011 -4.21829e-011 1   
     length 1.10116   
     axis -90 7.62852e-016 20   XYZ
    dof rx
    limits (-90.0 20.0)
  end
  begin
     id 6 
     name rhipjoint
     direction -0.554414 -0.743062 0.374812   
     length 2.4371  
     axis 0 0 0  XYZ 
  end
  begin
     id 7 
     name rfemur
     direction -0.34202 -0.939693 0   
     length 7.47254   
     axis 0 0 -20   XYZ
    dof rx ry rz
    limits (-160.0 20.0)
           (-70.0 70.0)
           (-70.0 60.0)
  end
  begin
     id 8 
     name rtibia
     direction -0.34202 -0.939693 0   
     length 7.65855   
     axis 0 0 -20   XYZ
    dof rx
    limits (-10.0 170.0)
 end
 begin
     id 9 
     name rfoot
     direction -0.133779 -0.367555 0.92033   
     length 2.43006  
     axis -90 -7.62852e-016 -20   XYZ
    dof rx rz
    limits (-45.0 90.0)
           (-20.0 70.0)
  end
  begin
     id 10 
     name rtoes
     direction -1.53563e-011 -4.21889e-011 1   
     length 1.19625   
     axis -90 -7.62852e-016 -20   XYZ
    dof rx
    limits (-90.0 20.0)
  end
  begin
     id 11 
     name lowerback
     direction 0.0249066 0.998043 -0.0573585   
     length 2.08485   
     axis 0 0 0   XYZ
    dof rx ry rz
    limits (-20.0 45.0)
           (-30.0 30.0)
           (-30.0 30.0)
  end
  begin
     id 12 
     name upperback
     direction 0.0237884 0.999673 0.00943178   
     length 2.08515   
     axis 0 0 0   XYZ
    dof rx ry rz
    limits (-20.0 45.0)
           (-30.0 30.0)
           (-30.0 30.0)
  end
  begin
     id 13 
     name thorax
     direction 0.0106671 0.999301 0.0358174   
     length 2.09037   
     axis 0 0 0   XYZ
    dof rx ry rz
    limits (-20.0 45.0)
           (-30.0 30.0)
           (-30.0 30.0)
  end
  begin
     id 14 
     name lowerneck
     direction -0.0580016 0.987052 0.149546   
     length 1.84454   
     axis 0 0 0   XYZ
    dof rx ry rz
    limits (-20.0 45.0)
           (-30.0 30.0)
           (-30.0 30.0)
  end
  begin
     id 15 
     name upperneck
     direction 0.079456 0.981963 -0.171567   
     length 1.88141   
     axis 0 0 0   XYZ
    dof rx ry rz
    limits (-20.0 45.0)
           (-30.0 30.0)
           (-30.0 30.0)
  end
  begin
     id 16
     name head
     direction 0.0262167 0.9967 -0.0768276  
     length 1.89541  
     axis 0 0 0   XYZ
    dof rx ry rz
    limits (-20.0 45.0)
           (-30.0 30.0)
           (-30.0 30.0)
  end
  begin
     id 17 
     name lclavicle
     direction 0.946135 0.322134 -0.0325326  
     length 3.949  
     axis 0 0 0   XYZ
    dof ry rz
    limits (-20.0 10.0)
           (0.0 20.0)
  end
  begin
     id 18 
     name lhumerus
     direction 1 -4.48964e-011 1.94005e-028   
     length 5.10995   
     axis 180 -30 -90   XYZ
    dof rx ry rz
    limits (-60.0 90.0)
           (-90.0 90.0)
           (-90.0 90.0)
  end
  begin
     id 19
     name lradius
     direction 1 -4.48976e-011 2.87852e-027   
     length 3.21207   
     axis 180 -30 -90   XYZ
    dof rx
    limits (-10.0 170.0)
  end
  begin
     id 20
     name lwrist
     direction 1 -4.48963e-011 1.9975e-027   
     length 1.60604   
     axis 2.96054e-016 90 90   XYZ
    dof ry
    limits (-180.0 0.0)
 end
  begin
     id 21 
     name lhand
     direction 1 -4.48919e-011 4.00227e-027   
     length 0.63349   
     axis -2.5488e-015 90 90   XYZ
    dof rx rz
    limits (-90.0 90.0)
           (-45.0 45.0)
  end
  begin
     id 22 
     name lfingers
     direction 1 -4.49037e-011 7.9652e-027   
     length 0.510736   
     axis -5.0975e-015 90 90   XYZ
    dof rx
    limits (0.0 90.0)
  end
  begin
     id 23
     name lthumb
     direction 0.707107 -6.34922e-011 0.707107   
     length 0.733318   
     axis -90 45 -4.48553e-014   XYZ
    dof rx rz
    limits (-45.0 45.0)
           (-45.0 45.0)
  end
  begin
     id 24 
     name rclavicle
     direction -0.940085 0.328911 -0.0897654   
     length 3.93848  
     axis 0 0 0   XYZ 
    dof ry rz
    limits (-10.0 20.0)
           (-20.0 0.0)
  end
  begin
     id 25 
     name rhumerus
     direction -1 -4.48958e-011 3.02044e-027  
     length 5.25109   
     axis 180 30 90   XYZ
    dof rx ry rz
    limits (-90.0 60.0)
           (-90.0 90.0)
           (-90.0 90.0)
  end
  begin
     id 26 
     name rradius
     direction -1 -4.4897e-011 9.78352e-028   
     length 3.28364   
     axis 180 30 90   XYZ
    dof rx
    limits (-10.0 170.0)
  end
  begin
     id 27 
     name rwrist
     direction -1 -4.48943e-011 1.99918e-027   
     length 1.64182   
     axis 2.96054e-016 -90 -90   XYZ
    dof ry
    limits (-180.0 0.0)
  end
  begin
     id 28
     name rhand
     direction -1 -4.49024e-011 3.98478e-027   
     length 0.599745   
     axis -2.5488e-015 -90 -90   XYZ
    dof rx rz
    limits (-90.0 90.0)
           (-45.0 45.0)
  end
  begin
     id 29
     name rfingers
     direction -1 -4.48914e-011 8.00621e-027   
     length 0.48353   
     axis -5.0975e-015 -90 -90   XYZ
    dof rx
    limits (0.0 90.0)
  end
  begin
     id 30
     name rthumb
     direction -0.707107 -6.34992e-011 0.707107   
     length 0.694255   
     axis -90 -45 4.48553e-014   XYZ
    dof rx rz
    limits (-45.0 45.0)
           (-45.0 45.0)
  end
:hierarchy
  begin
    root lhipjoint rhipjoint lowerback
    lhipjoint lfemur
    lfemur ltibia
    ltibia lfoot
    lfoot ltoes
    rhipjoint rfemur
    rfemur rtibia
    rtibia rfoot
    rfoot rtoes
    lowerback upperback
    upperback thorax
    thorax lowerneck lclavicle rclavicle
    lowerneck upperneck
    upperneck head
    lclavicle lhumerus
    lhumerus lradius
    lradius lwrist
    lwrist lhand lthumb
    lhand lfingers
    rclavicle rhumerus
    rhumerus rradius
    rradius rwrist
    rwrist rhand rthumb
    rhand rfingers
  end

#!OML:ASF E:\CV Data\Top Level 1\Subject 1\Session 1\player.ASF
:FULLY-SPECIFIED
:DEGREES
182
root 5.49854 17.1366 -22.7139 24.899 -1.40297 -5.09396
lowerback 41.2307 -0.293982 3.18036
upperback 9.4062 1.23667 3.05103
thorax -9.25933 0.442618 1.11543
lowerneck -20.0192 -5.86561 -11.9965
upperneck 17.9375 -5.76466 6.00439
head 9.50374 -2.84151 3.22846
rclavicle 2.98177e-016 1.2424e-014
rhumerus -8.41004 4.49391 -84.5565
rradius 102.379
rwrist -46.1151
rhand -31.7044 9.20382
rfingers 7.12502
rthumb -4.96332 -20.7181
lclavicle 2.98177e-016 1.2424e-014
lhumerus 7.94808 -39.1863 100.402
lradius 78.4046
lwrist 25.4263
lhand -36.0609 19.0481
lfingers 7.12502
lthumb -9.16852 48.8288
rfemur -54.1409 -1.27486 23.7903
rtibia 44.2175
rfoot -12.2014 -8.22331
rtoes 1.25483
lfemur -53.3122 10.0444 -12.7609
ltibia 41.2385
lfoot -8.3754 -2.49128
ltoes -4.62151
183
root 5.49201 17.141 -22.7043 24.9449 -1.24291 -5.12241
lowerback 41.2538 -0.349176 3.2267
upperback 9.40815 1.19245 3.05816
thorax -9.26265 0.422565 1.11761
lowerneck -19.9985 -5.86195 -12.0023
upperneck 17.8916 -5.77565 6.07636
head 9.48731 -2.83888 3.2532
rclavicle -1.77912e-014 -1.29707e-014
rhumerus -9.32945 4.32396 -84.6165
rradius 102.856
rwrist -46.2818
rhand -32.108 9.40617
rfingers 7.12502
rthumb -5.35296 -20.5062
lclavicle -1.77912e-014 -1.29707e-014
lhumerus 7.69444 -39.7293 100.585
lradius 78.0759
lwrist 25.5689
lhand -36.615 18.8142
lfingers 7.12502
lthumb -9.70324 48.5707
rfemur -54.1091 -1.39271 23.9102
rtibia 44.1523
rfoot -12.2253 -8.2388
rtoes 1.25991
lfemur -53.3282 9.85225 -12.6199
ltibia 41.1972
lfoot -8.31179 -2.40552
ltoes -4.56823
184
root 5.48707 17.1455 -22.6946 24.9941 -1.08681 -5.14709
lowerback 41.276 -0.402168 3.27483
upperback 9.40349 1.15235 3.06865
thorax -9.27324 0.404226 1.12078
lowerneck -19.9718 -5.86801 -12.0347
upperneck 17.8482 -5.79684 6.1664
head 9.47325 -2.84097 3.28717
rclavicle -1.0635e-014 -1.35174e-014
rhumerus -10.2309 4.20513 -84.6528
rradius 103.284
rwrist -46.0553
rhand -32.6205 9.68399
rfingers 7.12502
rthumb -5.84778 -20.2153
lclavicle -1.0635e-014 -1.35174e-014
lhumerus 7.48836 -40.3307 100.728
lradius 77.6857
lwrist 25.7978
lhand -37.149 18.7457
lfingers 7.12502
lthumb -10.2183 48.4775
rfemur -54.08 -1.50913 24.0183
rtibia 44.0861
rfoot -12.2493 -8.25695
rtoes 1.26737
lfemur -53.348 9.66363 -12.4914
ltibia 41.1524
lfoot -8.24731 -2.33222
ltoes -4.5193
185
root 5.48382 17.1502 -22.685 25.0381 -0.935125 -5.16429
lowerback 41.2975 -0.452151 3.32529
upperback 9.40206 1.11687 3.08121
thorax -9.27996 0.387972 1.12306
lowerneck -19.9412 -5.88384 -12.0854
upperneck 17.7975 -5.82884 6.26839
head 9.45806 -2.84801 3.32666
rclavicle -9.93923e-016 7.10655e-015
rhumerus -11.0989 4.15771 -84.67
rradius 103.659
rwrist -45.3499
rhand -33.3505 10.042
rfingers 7.12502
rthumb -6.55263 -19.8366
lclavicle -9.93923e-016 7.10655e-015
lhumerus 7.34359 -40.9965 100.815
lradius 77.254
lwrist 26.1317
lhand -37.6882 18.7413
lfingers 7.12502
lthumb -10.7385 48.4468
rfemur -54.044 -1.63051 24.1125
rtibia 44.0173
rfoot -12.273 -8.27266
rtoes 1.26693
lfemur -53.3589 9.47691 -12.379
ltibia 41.0983
lfoot -8.18148 -2.27055
ltoes -4.4857
186
root 5.48213 17.1555 -22.6752 25.0651 -0.791302 -5.17214
lowerback 41.3258 -0.498059 3.37599
upperback 9.4114 1.08596 3.09257
thorax -9.2766 0.37389 1.12208
lowerneck -19.9129 -5.90721 -12.14
upperneck 17.7372 -5.86972 6.37163
head 9.44109 -2.85916 3.36572
rclavicle -2.98177e-015 -8.99501e-015
rhumerus -11.9181 4.19548 -84.6783
rradius 103.985
rwrist -44.2148
rhand -34.336 10.4322
rfingers 7.12502
rthumb -7.50387 -19.4147
lclavicle -2.98177e-015 -8.99501e-015
lhumerus 7.26262 -41.7158 100.843
lradius 76.8032
lwrist 26.5603
lhand -38.2145 18.8257
lfingers 7.12502
lthumb -11.2461 48.5043
rfemur -53.9864 -1.75325 24.1876
rtibia 43.9451
rfoot -12.2967 -8.28715
rtoes 1.26478
lfemur -53.3425 9.29372 -12.2828
ltibia 41.0304
lfoot -8.11541 -2.22035
ltoes -4.45941
187
root 5.48198 17.1616 -22.6651 25.0644 -0.654483 -5.16939
lowerback 41.3693 -0.541834 3.42686
upperback 9.4373 1.05729 3.10191
thorax -9.25915 0.360965 1.11797
lowerneck -19.892 -5.93489 -12.1907
upperneck 17.6649 -5.91457 6.46745
head 9.42133 -2.87248 3.40069
rclavicle -1.5704e-014 6.11263e-015
rhumerus -12.6804 4.3123 -84.6866
rradius 104.283
rwrist -42.7761
rhand -35.6072 10.857
rfingers 7.12502
rthumb -8.73071 -18.9425
lclavicle -1.5704e-014 6.11263e-015
lhumerus 7.23559 -42.4601 100.817
lradius 76.3643
lwrist 27.0695
lhand -38.6722 19.0797
lfingers 7.12502
lthumb -11.6875 48.7337
rfemur -53.8939 -1.87918 24.2419
rtibia 43.8681
rfoot -12.323 -8.30048
rtoes 1.26242
lfemur -53.283 9.11209 -12.2025
ltibia 40.943
lfoot -8.05073 -2.18015
ltoes -4.46392
188
root 5.48348 17.1685 -22.6546 25.0256 -0.521602 -5.15071
lowerback 41.4454 -0.585973 3.47571
upperback 9.47787 1.02828 3.11074
thorax -9.2351 0.347908 1.1147
lowerneck -19.8767 -5.96523 -12.2349
upperneck 17.5823 -5.96091 6.54991
head 9.39854 -2.88732 3.42944
rclavicle 1.53064e-014 9.69075e-015
rhumerus -13.3863 4.48586 -84.6938
rradius 104.59
rwrist -41.2213
rhand -37.0046 11.2709
rfingers 7.12502
rthumb -10.079 -18.4678
lclavicle 1.53064e-014 9.69075e-015
lhumerus 7.23862 -43.1886 100.762
lradius 75.9631
lwrist 27.6396
lhand -39.0724 19.2871
lfingers 7.12502
lthumb -12.0735 48.9188
rfemur -53.7548 -2.01417 24.2697
rtibia 43.7877
rfoot -12.3531 -8.31287
rtoes 1.25315
lfemur -53.1673 8.92486 -12.1411
ltibia 40.8335
lfoot -7.99096 -2.14677
ltoes -4.5063
189
root 5.48648 17.1762 -22.6438 24.9495 -0.394662 -5.11666
lowerback 41.5613 -0.629093 3.51589
upperback 9.52875 0.998982 3.12233
thorax -9.21179 0.334612 1.11922
lowerneck -19.8737 -5.99532 -12.2717
upperneck 17.4986 -6.00273 6.61159
head 9.37632 -2.90162 3.45011
rclavicle -3.97569e-016 -1.69961e-014
rhumerus -14.0376 4.68868 -84.7016
rradius 104.95
rwrist -39.7171
rhand -38.4396 11.7156
rfingers 7.12502
rthumb -11.4633 -17.951
lclavicle -3.97569e-016 -1.69961e-014
lhumerus 7.24245 -43.8477 100.709
lradius 75.624
lwrist 28.2592
lhand -39.3722 19.4344
lfingers 7.12502
lthumb -12.3626 49.0489
rfemur -53.5713 -2.1499 24.2672
rtibia 43.7077
rfoot -12.3894 -8.33066
rtoes 1.24742
lfemur -52.9955 8.73691 -12.1003
ltibia 40.701
lfoot -7.93744 -2.12467
ltoes -4.57703
190
root 5.49087 17.1841 -22.633 24.8569 -0.273881 -5.06568
lowerback 41.7037 -0.67323 3.54496
upperback 9.57954 0.965942 3.13662
thorax -9.19684 0.319508 1.13413
lowerneck -19.884 -6.0222 -12.3076
upperneck 17.4241 -6.03459 6.65399
head 9.358 -2.91322 3.4652
rclavicle 5.1684e-015 2.73329e-015
rhumerus -14.6452 4.9033 -84.7157
rradius 105.409
rwrist -38.35
rhand -39.7919 12.2332
rfingers 7.12502
rthumb -12.7672 -17.3565
lclavicle 5.1684e-015 2.73329e-015
lhumerus 7.21357 -44.3907 100.69
lradius 75.3685
lwrist 28.9206
lhand -39.5486 19.5616
lfingers 7.12502
lthumb -12.5326 49.1657
rfemur -53.3722 -2.2832 24.2332
rtibia 43.6359
rfoot -12.4327 -8.35725
rtoes 1.25464
lfemur -52.7947 8.55103 -12.0854
ltibia 40.5482
lfoot -7.88918 -2.11461
ltoes -4.68855
191
root 5.49683 17.192 -22.6226 24.7629 -0.149647 -4.99289
lowerback 41.861 -0.72762 3.57271
upperback 9.62449 0.921617 3.1511
thorax -9.19274 0.299259 1.15483
lowerneck -19.907 -6.04614 -12.3459
upperneck 17.3586 -6.05694 6.68116
head 9.34374 -2.9221 3.4766
rclavicle -1.99779e-014 2.75317e-014
rhumerus -15.2141 5.11826 -84.7423
rradius 105.997
rwrist -37.095
rhand -41.0323 12.8471
rfingers 7.12502
rthumb -13.9628 -16.664
lclavicle -1.99779e-014 2.75317e-014
lhumerus 7.15439 -44.7901 100.711
lradius 75.1606
lwrist 29.6087
lhand -39.5121 19.725
lfingers 7.12502
lthumb -12.4974 49.3312
rfemur -53.1812 -2.42313 24.1661
rtibia 43.5817
rfoot -12.4852 -8.39407
rtoes 1.27849
lfemur -52.5903 8.36017 -12.1024
ltibia 40.3809
lfoot -7.84185 -2.11907
ltoes -4.83452
192
root 5.50434 17.1991 -22.6131 24.6871 -0.0151997 -4.89281
lowerback 42.0139 -0.797505 3.60566
upperback 9.65855 0.861429 3.16262
thorax -9.19899 0.27198 1.17641
lowerneck -19.9367 -6.06742 -12.3899
upperneck 17.2996 -6.07191 6.70236
head 9.33221 -2.92853 3.48787
rclavicle -7.55382e-015 3.27995e-015
rhumerus -15.7477 5.33261 -84.7863
rradius 106.713
rwrist -35.8203
rhand -42.1255 13.5316
rfingers 7.12502
rthumb -15.0161 -15.9039
lclavicle -7.55382e-015 3.27995e-015
lhumerus 7.05789 -45.0321 100.782
lradius 75.0087
lwrist 30.3365
lhand -39.3155 19.7509
lfingers 7.12502
lthumb -12.3078 49.3687
rfemur -53.0267 -2.5745 24.0634
rtibia 43.5556
rfoot -12.5476 -8.44486
rtoes 1.31195
lfemur -52.4112 8.15758 -12.1568
ltibia 40.2053
lfoot -7.79404 -2.13737
ltoes -5.00265
